<?xml version="1.0" encoding="iso-8859-1"?>
<!-- Uploaded to: SVG Repo, www.svgrepo.com, Generator: SVG Repo Mixer Tools -->
<svg fill="#D4BEE4" height="800px" width="800px" version="1.1" id="Layer_1" xmlns="http://www.w3.org/2000/svg" xmlns:xlink="http://www.w3.org/1999/xlink" 
	 viewBox="0 0 512 512" xml:space="preserve">
<g>
	<g>
		<g>
			<path d="M256,0C114.617,0,0,114.617,0,256s114.617,256,256,256s256-114.617,256-256S397.383,0,256,0z M256,494.933
				C124.043,494.933,17.067,387.957,17.067,256S124.043,17.067,256,17.067S494.933,124.043,494.933,256S387.957,494.933,256,494.933
				z"/>
			<path d="M161.956,221.867c23.563,0,42.667-19.104,42.667-42.667c0-23.563-19.104-42.667-42.667-42.667
				c-23.563,0-42.667,19.104-42.667,42.667C119.289,202.763,138.393,221.867,161.956,221.867z M161.956,153.6
				c14.137,0,25.6,11.463,25.6,25.6s-11.463,25.6-25.6,25.6c-14.137,0-25.6-11.463-25.6-25.6S147.819,153.6,161.956,153.6z"/>
			<path d="M319.855,186.609l59.733,34.133c4.092,2.338,9.305,0.917,11.643-3.175c2.338-4.092,0.917-9.305-3.175-11.643
				l-46.748-26.713l46.918-26.73c4.095-2.333,5.523-7.544,3.19-11.639s-7.544-5.523-11.639-3.19l-59.913,34.133
				C314.124,175.056,314.118,183.331,319.855,186.609z"/>
			<path d="M372.524,298.667H139.546c-16.185,0-25.605,18.117-16.543,31.481c19.853,29.307,48.514,51.28,81.797,62.503V409.6
				c0,28.273,22.927,51.2,51.2,51.2c28.273,0,51.2-22.927,51.2-51.2v-16.958c33.307-11.231,61.98-33.23,81.837-62.578
				C398.056,316.722,388.669,298.667,372.524,298.667z M290.133,409.6c0,18.848-15.286,34.133-34.133,34.133
				s-34.133-15.286-34.133-34.133v-23.188c0-0.005,0.001-0.009,0.001-0.014v-36.531h68.266V409.6z M374.9,320.504
				c-16.68,24.652-40.276,43.491-67.699,54.008v-24.645c0-9.423-7.643-17.067-17.067-17.067h-0.001h-68.266h-0.001
				c-9.423,0-17.067,7.643-17.067,17.067v24.653c-27.404-10.508-50.99-29.326-67.669-53.947c-1.424-2.099,0.001-4.84,2.416-4.84
				h232.977C374.902,315.733,376.303,318.428,374.9,320.504z"/>
		</g>
	</g>
</g>
</svg>