<?xml version="1.0" encoding="iso-8859-1"?>
<!-- Uploaded to: SVG Repo, www.svgrepo.com, Generator: SVG Repo Mixer Tools -->
<svg fill="#D4BEE4" height="800px" width="800px" version="1.1" id="Layer_1" xmlns="http://www.w3.org/2000/svg" xmlns:xlink="http://www.w3.org/1999/xlink" 
	 viewBox="0 0 512 512" xml:space="preserve">
<g>
	<g>
		<g>
			<path d="M256,0C114.617,0,0,114.617,0,256s114.617,256,256,256s256-114.617,256-256S397.383,0,256,0z M256,494.933
				C124.043,494.933,17.067,387.957,17.067,256S124.043,17.067,256,17.067S494.933,124.043,494.933,256S387.957,494.933,256,494.933
				z"/>
			<path d="M324.267,307.2c-4.713,0-8.533,3.82-8.533,8.533c0,18.873-15.26,34.133-34.133,34.133h-93.867
				c-4.713,0-8.533,3.82-8.533,8.533s3.82,8.533,8.533,8.533H281.6c28.299,0,51.2-22.901,51.2-51.2
				C332.8,311.021,328.979,307.2,324.267,307.2z"/>
			<path d="M351.59,137.237c11.176-2.304,22.814,1.07,31.042,9.305c3.331,3.334,8.734,3.336,12.068,0.005
				c3.334-3.331,3.336-8.734,0.005-12.068c-12.33-12.34-29.815-17.409-46.56-13.957c-4.616,0.952-7.586,5.465-6.635,10.081
				C342.461,135.218,346.974,138.188,351.59,137.237z"/>
			<path d="M129.464,146.541c8.211-8.211,19.811-11.589,30.973-9.32c4.618,0.939,9.123-2.044,10.062-6.662
				s-2.044-9.123-6.662-10.062c-16.717-3.398-34.14,1.675-46.441,13.976c-3.332,3.333-3.332,8.735,0,12.068
				C120.728,149.874,126.131,149.874,129.464,146.541z"/>
			<path d="M187.733,204.8c4.713,0,8.533-3.82,8.533-8.533c0-23.563-19.104-42.667-42.667-42.667
				c-23.563,0-42.667,19.104-42.667,42.667c0,4.713,3.82,8.533,8.533,8.533s8.533-3.82,8.533-8.533c0-14.137,11.463-25.6,25.6-25.6
				c14.137,0,25.6,11.463,25.6,25.6C179.2,200.979,183.021,204.8,187.733,204.8z"/>
			<path d="M358.4,153.6c-23.563,0-42.667,19.104-42.667,42.667c0,4.713,3.82,8.533,8.533,8.533s8.533-3.82,8.533-8.533
				c0-14.137,11.463-25.6,25.6-25.6s25.6,11.463,25.6,25.6c0,4.713,3.821,8.533,8.533,8.533c4.713,0,8.533-3.82,8.533-8.533
				C401.067,172.704,381.963,153.6,358.4,153.6z"/>
			<path d="M76.8,238.933c-18.853,0-34.133,15.281-34.133,34.133c0,18.853,15.281,34.133,34.133,34.133
				c18.853,0,34.133-15.281,34.133-34.133C110.933,254.214,95.653,238.933,76.8,238.933z M76.8,290.133
				c-9.427,0-17.067-7.64-17.067-17.067c0-9.427,7.64-17.067,17.067-17.067c9.427,0,17.067,7.64,17.067,17.067
				C93.867,282.494,86.227,290.133,76.8,290.133z"/>
			<path d="M435.2,238.933c-18.853,0-34.133,15.281-34.133,34.133c0,18.853,15.281,34.133,34.133,34.133
				c18.853,0,34.133-15.281,34.133-34.133C469.333,254.214,454.053,238.933,435.2,238.933z M435.2,290.133
				c-9.427,0-17.067-7.64-17.067-17.067c0-9.427,7.64-17.067,17.067-17.067s17.067,7.64,17.067,17.067
				C452.267,282.494,444.627,290.133,435.2,290.133z"/>
		</g>
	</g>
</g>
</svg>